<?xml version="1.0" standalone="no"?>
<!DOCTYPE svg PUBLIC "-//W3C//DTD SVG 20010904//EN"
 "http://www.w3.org/TR/2001/REC-SVG-20010904/DTD/svg10.dtd">
<svg version="1.0" xmlns="http://www.w3.org/2000/svg"
 width="287.000000pt" height="142.000000pt" viewBox="0 0 287.000000 142.000000"
 preserveAspectRatio="xMidYMid meet">
<metadata>
Created by potrace 1.16, written by Peter Selinger 2001-2019
</metadata>
<g transform="translate(0.000000,142.000000) scale(0.100000,-0.100000)"
fill="#000000" stroke="none">
<path d="M1380 790 c0 -65 2 -70 22 -70 30 0 94 -71 102 -114 10 -52 -9 -107
-48 -146 -67 -64 -190 -50 -237 26 l-21 35 46 40 c46 41 76 107 76 167 0 21
-3 23 -27 17 -114 -28 -163 -188 -86 -282 82 -102 236 -91 300 22 45 80 18
192 -58 242 -34 22 -39 30 -39 64 0 32 3 39 20 39 11 0 20 7 20 15 0 10 -11
15 -35 15 l-35 0 0 -70z"/>
<path d="M207 753 c-4 -3 -7 -82 -7 -175 l0 -168 90 0 c105 0 133 12 150 66
14 41 1 90 -30 111 -19 13 -19 16 -5 36 25 36 19 82 -16 111 -27 23 -40 26
-103 26 -40 0 -76 -3 -79 -7z m183 -200 c25 -32 20 -69 -12 -96 -16 -14 -35
-17 -77 -15 l-56 3 -3 54 c-5 78 -2 81 67 81 53 0 62 -3 81 -27z"/>
<path d="M660 738 c-83 -43 -115 -158 -67 -243 72 -127 259 -122 318 9 74 163
-90 315 -251 234z m177 -45 c20 -14 37 -39 44 -62 30 -99 -38 -191 -140 -191
-77 0 -143 90 -127 174 19 101 138 143 223 79z"/>
<path d="M925 750 c-12 -20 7 -30 56 -30 l49 0 0 -154 c0 -85 4 -157 8 -160
25 -15 32 16 34 164 l3 155 48 -3 c42 -3 47 -1 47 17 0 20 -5 21 -119 21 -69
0 -122 -4 -126 -10z"/>
<path d="M1568 688 c-4 -221 4 -251 79 -277 34 -12 45 -12 83 0 75 24 85 48
85 207 0 122 -2 137 -17 140 -16 3 -18 -8 -18 -125 0 -104 -3 -133 -17 -153
-23 -35 -33 -40 -73 -40 -73 1 -90 38 -90 201 0 99 -3 119 -15 119 -12 0 -15
-15 -17 -72z"/>
<path d="M1939 732 c-55 -35 -79 -82 -79 -152 0 -85 49 -148 133 -171 69 -19
177 22 177 68 0 19 -15 16 -56 -12 -68 -46 -163 -25 -200 46 -24 46 -15 131
17 165 27 30 77 54 112 54 13 0 41 -11 61 -25 41 -28 66 -32 66 -11 0 29 -61
60 -125 64 -53 3 -66 0 -106 -26z"/>
<path d="M2220 585 c0 -163 1 -176 18 -173 13 2 18 15 20 59 l3 57 89 1 90 2
0 -61 c0 -53 2 -60 20 -60 19 0 20 7 20 175 0 168 -1 175 -20 175 -19 0 -20
-7 -20 -100 l0 -100 -90 0 -89 0 -3 97 c-3 84 -6 98 -20 101 -17 3 -18 -10
-18 -173z"/>
</g>
</svg>
