<?xml version="1.0" standalone="no"?>
<!DOCTYPE svg PUBLIC "-//W3C//DTD SVG 20010904//EN"
 "http://www.w3.org/TR/2001/REC-SVG-20010904/DTD/svg10.dtd">
<svg version="1.0" xmlns="http://www.w3.org/2000/svg"
 width="287.000000pt" height="142.000000pt" viewBox="0 0 287.000000 142.000000"
 preserveAspectRatio="xMidYMid meet">

<g transform="translate(0.000000,142.000000) scale(0.100000,-0.100000)"
fill="#000000" stroke="none">
<path d="M341 861 c-7 -5 -11 -21 -9 -37 2 -23 8 -29 28 -29 20 0 26 6 28 27
4 29 -24 53 -47 39z m32 -25 c7 -19 -18 -42 -28 -26 -8 13 1 40 14 40 5 0 11
-6 14 -14z"/>
<path d="M561 829 c1 -24 3 -36 6 -26 5 20 32 19 50 -3 10 -12 12 -9 13 23 0
35 -14 51 -23 25 -3 -9 -10 -8 -26 6 l-21 19 1 -44z"/>
<path d="M695 840 c-8 -36 0 -50 28 -50 18 0 19 2 7 10 -16 10 -20 41 -7 51 5
3 2 9 -6 12 -11 4 -18 -3 -22 -23z"/>
<path d="M813 863 c-8 -3 -9 -12 -3 -28 5 -12 6 -26 3 -29 -4 -3 -1 -6 5 -6 7
0 12 11 12 24 0 13 5 26 12 28 8 3 7 6 -3 10 -7 3 -19 3 -26 1z"/>
<path d="M913 830 c0 -25 2 -35 4 -22 2 12 2 32 0 45 -2 12 -4 2 -4 -23z"/>
<path d="M995 853 c-19 -19 -16 -42 7 -57 13 -8 21 -7 30 3 11 10 9 12 -7 9
-14 -2 -21 3 -23 19 -2 16 3 22 20 25 19 3 20 4 6 10 -11 4 -24 1 -33 -9z"/>
<path d="M217 853 c-4 -3 -7 -17 -7 -30 0 -27 21 -39 48 -28 15 7 14 9 -6 14
-13 3 -23 9 -23 14 1 4 1 12 1 18 0 6 9 9 20 6 11 -3 20 -1 20 4 0 10 -43 12
-53 2z"/>
<path d="M450 845 c0 -18 17 -20 23 -2 2 6 4 0 4 -15 0 -18 -4 -25 -13 -21 -8
3 -14 0 -14 -7 0 -6 10 -10 23 -8 17 2 22 10 22 36 1 27 -3 32 -22 32 -14 0
-23 -6 -23 -15z"/>
<path d="M1100 845 c0 -8 5 -15 10 -15 6 0 10 7 10 15 0 8 -4 15 -10 15 -5 0
-10 -7 -10 -15z"/>
<path d="M1245 850 c-3 -5 2 -13 12 -17 10 -4 23 -14 30 -22 15 -20 37 -2 31
25 -4 21 -62 33 -73 14z"/>
<path d="M1380 790 c0 -65 2 -70 22 -70 30 0 94 -71 102 -114 10 -52 -9 -107
-48 -146 -67 -64 -190 -50 -237 26 l-21 35 46 40 c46 41 76 107 76 167 0 21
-3 23 -27 17 -114 -28 -163 -188 -86 -282 82 -102 236 -91 300 22 45 80 18
192 -58 242 -34 22 -39 30 -39 64 0 32 3 39 20 39 11 0 20 7 20 15 0 10 -11
15 -35 15 l-35 0 0 -70z m-107 -157 c-19 -38 -68 -82 -79 -70 -16 16 9 80 49
120 l42 42 3 -28 c2 -15 -5 -44 -15 -64z"/>
<path d="M1130 810 c0 -19 3 -21 12 -12 9 9 9 15 0 24 -9 9 -12 7 -12 -12z"/>
<path d="M1105 800 c3 -5 8 -10 11 -10 2 0 4 5 4 10 0 6 -5 10 -11 10 -5 0 -7
-4 -4 -10z"/>
<path d="M207 753 c-4 -3 -7 -82 -7 -175 l0 -168 90 0 c105 0 133 12 150 66
14 41 1 90 -30 111 -19 13 -19 16 -5 36 25 36 19 82 -16 111 -27 23 -40 26
-103 26 -40 0 -76 -3 -79 -7z m157 -49 c37 -36 10 -82 -49 -85 -76 -3 -75 -4
-75 51 l0 50 54 0 c36 0 60 -5 70 -16z m26 -151 c25 -32 20 -69 -12 -96 -16
-14 -35 -17 -77 -15 l-56 3 -3 54 c-5 78 -2 81 67 81 53 0 62 -3 81 -27z"/>
<path d="M490 582 c0 -166 1 -180 18 -178 15 3 17 19 17 177 0 157 -2 174 -17
177 -17 3 -18 -10 -18 -176z"/>
<path d="M660 738 c-83 -43 -115 -158 -67 -243 72 -127 259 -122 318 9 74 163
-90 315 -251 234z m177 -45 c20 -14 37 -39 44 -62 30 -99 -38 -191 -140 -191
-77 0 -143 90 -127 174 19 101 138 143 223 79z"/>
<path d="M925 750 c-12 -20 7 -30 56 -30 l49 0 0 -154 c0 -85 4 -157 8 -160
25 -15 32 16 34 164 l3 155 48 -3 c42 -3 47 -1 47 17 0 20 -5 21 -119 21 -69
0 -122 -4 -126 -10z"/>
<path d="M1568 688 c-4 -221 4 -251 79 -277 34 -12 45 -12 83 0 75 24 85 48
85 207 0 122 -2 137 -17 140 -16 3 -18 -8 -18 -125 0 -104 -3 -133 -17 -153
-23 -35 -33 -40 -73 -40 -73 1 -90 38 -90 201 0 99 -3 119 -15 119 -12 0 -15
-15 -17 -72z"/>
<path d="M1939 732 c-55 -35 -79 -82 -79 -152 0 -85 49 -148 133 -171 69 -19
177 22 177 68 0 19 -15 16 -56 -12 -68 -46 -163 -25 -200 46 -24 46 -15 131
17 165 27 30 77 54 112 54 13 0 41 -11 61 -25 41 -28 66 -32 66 -11 0 29 -61
60 -125 64 -53 3 -66 0 -106 -26z"/>
<path d="M2220 585 c0 -163 1 -176 18 -173 13 2 18 15 20 59 l3 57 89 1 90 2
0 -61 c0 -53 2 -60 20 -60 19 0 20 7 20 175 0 168 -1 175 -20 175 -19 0 -20
-7 -20 -100 l0 -100 -90 0 -89 0 -3 97 c-3 84 -6 98 -20 101 -17 3 -18 -10
-18 -173z"/>
<path d="M1268 533 c-21 -8 -38 -21 -38 -29 0 -33 80 -45 130 -19 41 21 38 42
-7 54 -46 13 -40 13 -85 -6z m87 -12 c18 -7 17 -9 -10 -22 -32 -16 -95 -14
-95 2 0 22 67 35 105 20z"/>
</g>
</svg>
